<svg width="32" height="33" viewBox="0 0 32 33" fill="none" xmlns="http://www.w3.org/2000/svg">
<path d="M16 10.5551C15.7333 10.2218 15.3888 9.96087 14.9666 9.77242C14.5444 9.58398 14.0888 9.48931 13.6 9.48842C12.8 9.48842 12.1111 9.77731 11.5333 10.3551C10.9555 10.9329 10.6666 11.6218 10.6666 12.4218C10.6666 12.844 10.7275 13.2329 10.8493 13.5884C10.9711 13.944 11.2213 14.3662 11.6 14.8551C11.9111 15.2551 12.3444 15.7329 12.9 16.2884C13.4555 16.844 14.1666 17.5218 15.0333 18.3218C15.1666 18.4551 15.3164 18.5551 15.4826 18.6218C15.6488 18.6884 15.8213 18.7218 16 18.7218C16.1786 18.7218 16.3506 18.6884 16.516 18.6218C16.6813 18.5551 16.8315 18.4551 16.9666 18.3218C17.8111 17.544 18.5111 16.8831 19.0666 16.3391C19.6222 15.7951 20.0555 15.3115 20.3666 14.8884C20.7444 14.3995 21 13.9715 21.1333 13.6044C21.2666 13.2373 21.3333 12.8431 21.3333 12.4218C21.3333 11.6218 21.0444 10.9329 20.4666 10.3551C19.8888 9.77731 19.2 9.48842 18.4 9.48842C17.9333 9.48842 17.4831 9.58265 17.0493 9.77109C16.6155 9.95953 16.2657 10.2209 16 10.5551ZM16 24.1551L10.4 26.5551C9.51107 26.9329 8.66663 26.8609 7.86663 26.3391C7.06663 25.8173 6.66663 25.0782 6.66663 24.1218V6.82176C6.66663 6.08842 6.92796 5.46087 7.45063 4.93909C7.97329 4.41731 8.60085 4.15598 9.33329 4.15509H22.6666C23.4 4.15509 24.028 4.41642 24.5506 4.93909C25.0733 5.46176 25.3342 6.08931 25.3333 6.82176V24.1218C25.3333 25.0773 24.9333 25.8164 24.1333 26.3391C23.3333 26.8618 22.4888 26.9338 21.6 26.5551L16 24.1551Z" fill="white"/>
</svg>
