<svg width="32" height="33" viewBox="0 0 32 33" fill="none" xmlns="http://www.w3.org/2000/svg">
<path d="M5.33337 25.4883V13.4883C5.33337 13.0661 5.42804 12.6661 5.61737 12.2883C5.80671 11.9105 6.0676 11.5994 6.40004 11.355L14.4 5.35499C14.8667 4.99943 15.4 4.82166 16 4.82166C16.6 4.82166 17.1334 4.99943 17.6 5.35499L25.6 11.355C25.9334 11.5994 26.1947 11.9105 26.384 12.2883C26.5734 12.6661 26.6676 13.0661 26.6667 13.4883V25.4883C26.6667 26.2217 26.4054 26.8497 25.8827 27.3723C25.36 27.895 24.7325 28.1559 24 28.155H20C19.6223 28.155 19.3058 28.027 19.0507 27.771C18.7956 27.515 18.6676 27.1985 18.6667 26.8217V20.155C18.6667 19.7772 18.5387 19.4608 18.2827 19.2057C18.0267 18.9505 17.7103 18.8225 17.3334 18.8217H14.6667C14.2889 18.8217 13.9725 18.9497 13.7174 19.2057C13.4623 19.4617 13.3343 19.7781 13.3334 20.155V26.8217C13.3334 27.1994 13.2054 27.5163 12.9494 27.7723C12.6934 28.0283 12.3769 28.1559 12 28.155H8.00004C7.26671 28.155 6.63915 27.8941 6.11737 27.3723C5.5956 26.8505 5.33426 26.2225 5.33337 25.4883Z" fill="white"/>
</svg>
