<svg width="32" height="33" viewBox="0 0 32 33" fill="none" xmlns="http://www.w3.org/2000/svg">
<path d="M14.7333 19.4884L20.2666 15.9551C20.6666 15.6884 20.8666 15.3106 20.8666 14.8218C20.8666 14.3329 20.6666 13.9551 20.2666 13.6884L14.7333 10.1551C14.2888 9.8662 13.8333 9.84398 13.3666 10.0884C12.9 10.3329 12.6666 10.7218 12.6666 11.2551V18.3884C12.6666 18.9218 12.9 19.3106 13.3666 19.5551C13.8333 19.7995 14.2888 19.7773 14.7333 19.4884ZM5.33329 25.4884C4.59996 25.4884 3.9724 25.2275 3.45063 24.7058C2.92885 24.184 2.66751 23.556 2.66663 22.8218V6.82176C2.66663 6.08842 2.92796 5.46087 3.45063 4.93909C3.97329 4.41731 4.60085 4.15598 5.33329 4.15509H26.6666C27.4 4.15509 28.028 4.41642 28.5506 4.93909C29.0733 5.46176 29.3342 6.08931 29.3333 6.82176V22.8218C29.3333 23.5551 29.0724 24.1831 28.5506 24.7058C28.0288 25.2284 27.4008 25.4893 26.6666 25.4884H21.3333V26.8218C21.3333 27.1995 21.2053 27.5164 20.9493 27.7724C20.6933 28.0284 20.3768 28.156 20 28.1551H12C11.6222 28.1551 11.3057 28.0271 11.0506 27.7711C10.7955 27.5151 10.6675 27.1986 10.6666 26.8218V25.4884H5.33329Z" fill="white"/>
</svg>
